<svg width="1580" height="1580" viewBox="0 0 1580 1580" fill="none" xmlns="http://www.w3.org/2000/svg">
<rect width="1580" height="1580" rx="142" fill="#F26F18"/>
<path d="M246.239 324.469C246.708 324.958 252.96 326.183 291.409 332.959C416.445 355.245 404.644 352.96 408.864 355.245C413.319 357.531 418.633 363.082 420.743 367.328C421.681 369.368 438.248 413.207 457.472 464.883C476.775 516.476 493.029 559.335 493.733 560.07C494.827 561.213 504.751 561.621 582.117 563.58C630.022 564.805 681.912 566.111 697.385 566.601C712.858 567.009 768.265 568.479 820.467 569.785C911.978 572.152 945.113 572.969 1008.02 574.683C1024.12 575.091 1067.73 576.234 1104.92 577.132C1184.64 579.01 1193 579.418 1198.08 581.785C1205.66 585.296 1210.81 592.153 1214.02 602.684C1215.19 606.766 1215.27 608.072 1214.49 612.072C1214.02 614.603 1210.74 641.135 1207.3 671.013C1203.86 700.892 1200.73 728.24 1200.26 731.832C1199.56 737.22 1184.95 864.001 1179.09 914.697C1176.04 941.8 1175.34 946.29 1173.38 950.617C1170.02 958.372 1163.46 964.413 1156.11 966.454C1154.39 966.944 1106.57 971.189 1049.83 975.924C808.433 996.006 694.494 1005.48 675.113 1007.03C666.282 1007.68 658.311 1008.42 657.374 1008.66C656.123 1008.9 587.197 1064.74 555.547 1091.19C549.374 1096.34 544.216 1103.11 540.621 1110.62C535.229 1121.97 534.838 1131.11 539.214 1140.34C541.715 1145.65 544.919 1148.42 551.718 1151.2C555.86 1152.99 556.954 1152.99 617.284 1153.56C651.044 1153.89 788.505 1154.38 922.841 1154.63C1076.4 1155.03 1168.93 1155.52 1172.13 1156.01C1184.48 1157.97 1193.93 1168.58 1195.26 1181.81C1195.65 1185.73 1195.42 1188.1 1194.01 1192.75C1192.53 1197.97 1191.75 1199.36 1187.06 1204.18C1182.53 1208.91 1181.12 1209.89 1176.51 1211.36C1171.58 1212.91 1169.32 1213.08 1148.3 1213.08C1135.64 1213.08 1125.16 1213.4 1124.93 1213.81C1124.7 1214.22 1126.42 1216.1 1128.76 1217.97C1143.14 1229.57 1151.11 1248.18 1150.02 1267.69C1149 1286.39 1139.93 1302.88 1124.77 1313.41C1118.13 1318.06 1112.66 1320.35 1103.05 1322.55C1094.22 1324.51 1092.66 1324.51 1083.67 1322.39C1055.69 1315.77 1037.41 1292.92 1037.48 1264.51C1037.48 1244.59 1044.36 1230.38 1060.77 1216.1C1062.02 1214.95 1062.8 1213.73 1062.49 1213.32C1061.71 1212.51 579.148 1211.04 578.366 1211.85C578.054 1212.18 578.601 1212.99 579.46 1213.73C580.398 1214.55 582.977 1216.59 585.243 1218.38C593.136 1224.75 600.091 1235.44 604.077 1247.36C605.64 1251.94 605.874 1254.3 605.874 1264.1C605.874 1274.22 605.64 1276.26 603.764 1282.06C600.873 1291.2 596.731 1298.14 589.932 1305.41C580.945 1314.88 572.036 1319.77 557.814 1322.8C550.077 1324.51 548.358 1324.43 538.746 1322.06C520.146 1317.49 507.252 1307.04 499.281 1290.22C494.827 1280.83 493.498 1274.71 493.498 1264.1C493.498 1253.49 494.827 1247.36 499.281 1237.98C506.08 1223.61 517.958 1212.83 532.65 1207.85C534.916 1207.04 536.948 1206.06 537.261 1205.65C537.495 1205.24 536.01 1204.18 533.9 1203.28C513.191 1194.38 496.937 1177.97 486.387 1155.28C482.401 1146.71 481.073 1139.69 480.995 1127.77C480.995 1108.26 486.23 1090.87 497.484 1073.07C506.08 1059.52 515.536 1050.54 556.172 1017.23C576.1 1000.9 592.589 987.108 592.746 986.537C592.98 986.047 560.392 897.962 520.381 790.937C480.291 683.912 431.762 553.866 412.381 502.027C393 450.188 376.902 407.492 376.589 407.084C376.355 406.758 364.867 404.472 351.113 402.023C337.437 399.574 314.775 395.574 300.786 393.043C286.798 390.594 266.792 387.002 256.242 385.206C245.692 383.328 235.299 381.124 233.111 380.226C228.265 378.43 222.561 373.369 219.904 368.634C217.012 363.409 214.59 355.164 215.058 351.817C216.152 343.898 221.467 334.428 227.171 330.265C232.642 326.346 244.52 322.673 246.239 324.469ZM514.911 606.929C514.911 608.317 553.125 711.015 554.219 712.485C554.766 713.219 560.783 713.464 581.258 713.301L607.515 713.056L607.672 661.625C607.828 630.685 607.594 609.705 607.125 608.97C606.578 607.99 602.514 607.664 584.306 607.174C522.96 605.46 514.911 605.46 514.911 606.929ZM626.74 609.297C626.115 610.031 625.958 624.481 626.036 661.707L626.271 713.056H674.722H723.174L723.408 662.278L723.565 611.419L721.845 611.011C720.829 610.848 700.902 610.113 677.457 609.542C654.013 608.888 633.226 608.317 631.272 608.317C629.006 608.235 627.287 608.562 626.74 609.297ZM742.476 662.605L742.32 713.464H790.771H839.223L839.067 663.83L838.832 614.276L827.501 613.705C812.34 612.889 765.53 611.664 752.87 611.746L742.711 611.827L742.476 662.605ZM858.369 664.074V713.056H906.82H955.272L955.506 665.789C955.585 634.441 955.428 618.195 954.881 617.623C954.022 616.725 896.036 614.848 872.436 615.011L858.369 615.093V664.074ZM974.418 618.685C973.558 620.399 973.246 709.872 974.106 712.158C974.574 713.301 979.576 713.464 1022.95 713.464H1071.32V666.932V620.399L1069.52 620.073C1068.59 619.828 1047.72 619.175 1023.26 618.521C998.722 617.868 977.935 617.297 976.997 617.215C975.981 617.215 974.887 617.787 974.418 618.685ZM1090.23 667.095L1090.08 713.464H1125.56C1146.26 713.464 1161.27 713.138 1161.5 712.729C1161.82 712.321 1164.32 692.239 1167.13 668.075C1170.65 637.624 1171.98 623.991 1171.35 623.338C1170.65 622.603 1160.1 622.195 1115.08 620.971C1109.69 620.807 1101.95 620.726 1097.89 620.726L1090.47 620.807L1090.23 667.095ZM1090.23 780.324C1090.08 817.305 1090.23 827.346 1091.01 827.918C1092.34 828.734 1146.42 828.734 1147.67 827.918C1148.53 827.346 1150.8 809.223 1158.69 740.322C1159 737.384 1159.16 734.526 1159 733.955C1158.77 733.302 1150.02 733.057 1124.62 733.22L1090.47 733.465L1090.23 780.324ZM974.106 734.363C973.871 735.098 973.637 755.915 973.637 780.732C973.637 815.509 973.871 826.122 974.574 827.183C975.512 828.489 979.107 828.571 1023.26 828.408L1070.93 828.163L1071.16 781.63C1071.24 755.997 1071.16 734.608 1070.93 734.036C1070.7 733.302 1060.3 733.057 1022.56 733.057C979.498 733.057 974.574 733.22 974.106 734.363ZM858.135 779.916C858.056 813.55 858.213 826.693 858.838 827.428C860.088 828.979 953.24 829.142 954.725 827.591C955.428 826.857 955.663 815.264 955.663 780.406C955.663 754.935 955.428 733.873 955.116 733.628C954.881 733.302 932.922 733.138 906.508 733.22L858.369 733.465L858.135 779.916ZM742.711 780.814V828.163H790.771H838.832L839.067 781.63C839.145 755.997 839.067 734.608 838.832 734.036C838.598 733.22 828.517 733.057 790.615 733.22L742.711 733.465V780.814ZM626.036 779.916C625.958 813.55 626.115 826.693 626.74 827.428C627.443 828.408 635.883 828.571 674.332 828.571C700.042 828.571 721.611 828.326 722.314 828.081C723.408 827.591 723.565 822.693 723.565 780.896C723.565 755.18 723.33 733.873 723.017 733.628C722.783 733.302 700.824 733.138 674.41 733.22L626.271 733.465L626.036 779.916ZM562.581 734.445C562.581 736.077 596.028 825.959 597.2 827.51C598.138 828.897 605.718 828.897 606.968 827.591C607.672 826.857 607.906 815.428 607.906 781.14C607.906 756.078 607.672 735.098 607.437 734.363C607.047 733.22 604.311 733.057 584.774 733.057C564.222 733.057 562.581 733.138 562.581 734.445ZM1090.23 881.798L1090.08 915.921H1093.36C1101.56 915.921 1137.43 912.411 1138.22 911.595C1139.54 910.207 1146.34 849.633 1145.33 848.327C1144.78 847.592 1138.61 847.347 1117.51 847.51L1090.47 847.755L1090.23 881.798ZM974.574 848.327C973.48 849.47 973.246 922.942 974.34 924.82C974.965 925.799 982.311 925.31 1021.78 922.126C1047.56 920.003 1069.21 918.126 1069.91 917.881C1071.24 917.473 1071.32 915.105 1071.32 882.941C1071.32 864.001 1071.09 848.164 1070.77 847.919C1070.54 847.592 1048.97 847.347 1022.87 847.347C987.078 847.347 975.278 847.592 974.574 848.327ZM858.135 890.941C858.056 914.779 858.291 934.534 858.603 934.861C859.463 935.759 953.396 928.167 954.647 927.106C956.053 925.963 956.132 849.796 954.725 848.327C954.022 847.592 942.534 847.347 906.039 847.51L858.369 847.755L858.135 890.941ZM742.476 895.839C742.398 922.371 742.554 944.249 742.945 944.657C743.414 945.147 826.563 938.78 835.863 937.473L839.223 937.065V892.737C839.223 868.409 838.988 848.164 838.676 847.919C838.441 847.592 816.716 847.429 790.459 847.51L742.711 847.755L742.476 895.839ZM626.818 848.327C626.115 849.062 625.88 856.572 625.88 877.144V904.982L634.867 928.983C639.79 942.127 644.167 953.311 644.557 953.719C644.948 954.127 646.902 954.127 649.402 953.556C651.747 952.984 669.018 951.351 687.929 949.8C706.763 948.249 722.47 946.698 722.861 946.453C723.643 945.964 723.877 848.735 723.017 847.919C722.783 847.592 701.214 847.347 675.113 847.347C639.321 847.347 627.521 847.592 626.818 848.327ZM605.562 849.796C605.562 851.511 606.734 852 607.515 850.613C608.062 849.633 607.359 848.164 606.265 848.164C605.874 848.164 605.562 848.898 605.562 849.796ZM1082.97 1230.22C1076.79 1232.42 1073.35 1234.79 1068.74 1239.93C1063.04 1246.3 1060.15 1253.49 1059.76 1262.14C1059.52 1267.2 1059.76 1270.47 1060.77 1273.98C1068.04 1300.26 1099.61 1308.67 1118.05 1289.24C1135.95 1270.47 1128.76 1238.79 1104.69 1230.14C1098.99 1228.02 1089.06 1228.1 1082.97 1230.22ZM539.84 1229.89C532.572 1232.1 526.789 1236.42 521.866 1243.28C514.989 1252.83 513.66 1268.34 518.74 1279.45C528.899 1301.65 557.345 1306.79 573.99 1289.49C584.384 1278.55 586.963 1262.47 580.554 1248.59C576.413 1239.61 570.005 1233.65 560.939 1230.22C555.625 1228.26 545.779 1228.1 539.84 1229.89Z" fill="white"/>
<path d="M1101.88 1248.83C1112.66 1254.71 1114.38 1269.9 1105.24 1278.3C1092.19 1290.3 1072.65 1277.73 1076.87 1260.02C1078.12 1254.87 1083.67 1248.75 1088.12 1247.45C1093.36 1245.98 1097.34 1246.38 1101.88 1248.83Z" fill="white"/>
<path d="M557.97 1248.83C568.52 1254.55 570.473 1269 561.877 1277.65C548.67 1291.04 527.414 1277.16 533.197 1258.96C536.636 1248.34 548.279 1243.53 557.97 1248.83Z" fill="white"/>
</svg>
